<?xml version="1.0" standalone="no"?>
<!DOCTYPE svg PUBLIC "-//W3C//DTD SVG 20010904//EN"
 "http://www.w3.org/TR/2001/REC-SVG-20010904/DTD/svg10.dtd">
<svg version="1.0" xmlns="http://www.w3.org/2000/svg"
 width="300.000000pt" height="300.000000pt" viewBox="0 0 300.000000 300.000000"
 preserveAspectRatio="xMidYMid meet">
<metadata>
Created by potrace 1.11, written by Peter Selinger 2001-2013
</metadata>
<g transform="translate(0.000000,300.000000) scale(0.100000,-0.100000)"
fill="#000000" stroke="none">
<path d="M870 2570 c-33 -4 -46 -10 -48 -22 -2 -10 3 -18 10 -19 29 -1 51 -8
62 -19 8 -8 11 -110 11 -338 l0 -327 -221 -1 c-121 0 -225 -4 -232 -8 -17 -10
-4 -32 20 -33 11 -1 26 -7 32 -13 11 -11 22 -560 12 -586 -4 -11 -32 -9 -130
10 -62 11 -129 42 -162 73 -28 26 -34 39 -34 73 0 27 -5 43 -15 47 -9 3 -18 3
-21 1 -4 -5 -122 -299 -131 -329 -7 -23 28 -34 43 -14 25 34 64 33 164 -2 93
-33 114 -38 215 -49 28 -3 55 -7 62 -9 9 -3 12 -61 12 -230 -1 -215 -2 -227
-21 -245 -12 -11 -25 -17 -31 -13 -13 8 -28 -19 -17 -32 6 -7 144 -10 417 -9
379 2 414 3 486 23 119 31 202 76 271 145 68 69 93 107 129 198 42 105 52 174
50 333 -1 141 -6 175 -40 275 -75 220 -256 359 -503 387 -30 3 -71 6 -90 6
-46 -1 -58 10 -53 50 6 38 6 41 1 90 -3 21 -1 40 3 43 5 2 6 10 4 17 -10 27
-12 77 -2 77 6 0 6 5 0 13 -5 6 -8 32 -6 57 2 25 3 52 3 60 0 8 -1 49 -3 90
-1 41 2 81 7 88 5 7 4 12 -3 12 -7 0 -9 4 -6 10 3 5 8 20 10 32 6 28 16 37 45
43 27 5 33 10 36 30 2 11 -25 15 -144 17 -81 2 -167 1 -192 -2z m36 -1030 c-5
-195 -31 -261 -118 -304 -93 -47 -88 -58 -88 202 l0 228 105 0 105 0 -4 -126z
m349 115 c98 -23 195 -78 248 -141 35 -42 83 -140 96 -199 15 -65 20 -183 10
-242 -16 -102 -21 -119 -49 -178 -35 -73 -110 -151 -176 -185 -27 -13 -53 -25
-59 -26 -5 -2 -34 -9 -62 -17 -38 -10 -125 -15 -308 -16 l-255 -2 0 180 0 180
48 7 c45 6 58 9 101 18 51 12 121 53 163 97 73 75 100 149 102 271 1 32 5 58
9 58 5 0 5 5 2 11 -9 14 -13 69 -5 69 3 0 6 9 6 20 0 11 -3 20 -6 20 -4 0 -5
80 -1 86 3 4 110 -4 136 -11z"/>
<path d="M1946 1957 c-19 -15 -48 -111 -62 -202 -3 -22 -7 -51 -9 -65 -5 -35
-17 -192 -20 -270 -1 -49 4 -79 20 -120 23 -54 44 -125 50 -165 16 -102 26
-166 29 -195 13 -104 19 -139 29 -175 6 -22 10 -43 9 -47 -5 -23 63 -166 93
-197 12 -11 86 53 118 102 21 31 37 58 37 62 0 4 7 21 15 38 8 18 27 68 44
112 32 88 73 167 89 173 14 4 20 -20 27 -113 4 -65 15 -171 20 -195 11 -56 57
-110 88 -105 55 11 89 30 127 71 36 40 90 136 96 171 1 7 9 27 18 44 9 18 16
38 16 46 0 7 4 13 8 13 5 0 9 6 10 13 2 20 7 41 14 52 17 28 104 328 114 395
7 47 13 75 14 75 1 0 2 7 14 95 9 61 17 164 19 225 1 44 -1 50 -18 47 -55 -10
-79 -63 -89 -197 -3 -44 -11 -98 -16 -120 -6 -22 -12 -47 -14 -55 -19 -78 -75
-238 -106 -305 -5 -11 -25 -56 -45 -100 -59 -133 -110 -235 -116 -235 -19 0
-14 320 7 432 6 35 8 48 18 118 16 109 21 180 20 245 -3 135 -1 127 -33 122
-43 -7 -88 -37 -115 -77 -24 -35 -62 -138 -72 -195 -22 -135 -41 -208 -80
-325 -46 -133 -108 -272 -144 -320 l-18 -24 -10 39 c-6 22 -13 56 -16 75 -3
19 -8 46 -10 60 -35 185 -40 584 -10 812 5 38 2 53 -15 77 -12 16 -21 32 -21
36 0 6 -39 45 -44 45 -1 0 -15 4 -33 9 -22 6 -36 6 -47 -2z"/>
</g>
</svg>
